<?xml version="1.0" standalone="no"?>
<!DOCTYPE svg PUBLIC "-//W3C//DTD SVG 20010904//EN"
 "http://www.w3.org/TR/2001/REC-SVG-20010904/DTD/svg10.dtd">
<svg version="1.0" xmlns="http://www.w3.org/2000/svg"
 width="260.000000pt" height="260.000000pt" viewBox="0 0 260.000000 260.000000"
 preserveAspectRatio="xMidYMid meet">
<metadata>
Created by potrace 1.14, written by Peter Selinger 2001-2017
</metadata>
<g transform="translate(0.000000,260.000000) scale(0.100000,-0.100000)"
fill="#000000" stroke="none">
<path d="M80 2560 l0 -40 -40 0 -40 0 0 -1220 0 -1220 40 0 40 0 0 -40 0 -40
1220 0 1220 0 0 40 0 40 40 0 40 0 0 1140 0 1140 -40 0 -40 0 0 40 0 40 -40 0
-40 0 0 40 0 40 -40 0 -40 0 0 40 0 40 -205 0 -205 0 0 -40 0 -40 -120 0 -120
0 0 -40 0 -40 -45 0 -45 0 0 40 0 40 -40 0 -40 0 0 40 0 40 -730 0 -730 0 0
-40z m1460 -405 l0 -365 -40 0 -40 0 0 -40 0 -40 -485 0 -485 0 0 40 0 40 -40
0 -40 0 0 365 0 365 565 0 565 0 0 -365z m570 -815 l0 -40 40 0 40 0 0 -610 0
-610 -890 0 -890 0 0 610 0 610 40 0 40 0 0 40 0 40 810 0 810 0 0 -40z"/>
<path d="M1060 2115 l0 -325 160 0 160 0 0 325 0 325 -160 0 -160 0 0 -325z"/>
<path d="M650 1180 l0 -40 -40 0 -40 0 0 -405 0 -405 40 0 40 0 0 -45 0 -45
650 0 650 0 0 45 0 45 40 0 40 0 0 405 0 405 -40 0 -40 0 0 40 0 40 -650 0
-650 0 0 -40z m1300 -445 l0 -405 -650 0 -650 0 0 405 0 405 650 0 650 0 0
-405z"/>
<path d="M890 1020 l0 -40 -40 0 -40 0 0 -45 0 -45 -40 0 -40 0 0 -120 0 -120
40 0 40 0 0 -40 0 -40 40 0 40 0 0 -40 0 -40 -80 0 -80 0 0 -40 0 -40 570 0
570 0 0 40 0 40 -80 0 -80 0 0 40 0 40 40 0 40 0 0 40 0 40 40 0 40 0 0 120 0
120 -40 0 -40 0 0 45 0 45 -40 0 -40 0 0 40 0 40 -125 0 -125 0 0 -40 0 -40
-40 0 -40 0 0 -45 0 -45 -80 0 -80 0 0 45 0 45 -40 0 -40 0 0 40 0 40 -125 0
-125 0 0 -40z m250 -85 l0 -45 40 0 40 0 0 -120 0 -120 80 0 80 0 0 120 0 120
40 0 40 0 0 45 0 45 125 0 125 0 0 -45 0 -45 40 0 40 0 0 -120 0 -120 -40 0
-40 0 0 -40 0 -40 -125 0 -125 0 0 -40 0 -40 -160 0 -160 0 0 40 0 40 -125 0
-125 0 0 40 0 40 -40 0 -40 0 0 120 0 120 40 0 40 0 0 45 0 45 125 0 125 0 0
-45z"/>
<path d="M1140 610 l0 -40 40 0 40 0 0 40 0 40 -40 0 -40 0 0 -40z"/>
<path d="M1380 610 l0 -40 40 0 40 0 0 40 0 40 -40 0 -40 0 0 -40z"/>
</g>
</svg>
